# xmcd
#
# Track frame offsets: 
#        150
#        13313
#        22997
#        34204
#        44503
#        54317
#        63582
#        73382
#        83629
#        95840
#        106576
#        119337
#        130377
#        141185
#        151827
#        163829
#        174614
#        185131
#        198661
#        212322
#
# Disc length: 2974 seconds
#
# Revision: 0
# Processed by: cddbd v1.5.2PL0 Copyright (c) Steve Scherf et al.
# Submitted via: ExactAudioCopy v0.99pb5
#
DISCID=250b9c14
DTITLE=Tommy James and The Shondells  - The Roulette Singles As and Bs - D
DTITLE=isc 1
DYEAR=1900
DGENRE=
TTITLE0=Hanky Panky
TTITLE1=Thunderbolt
TTITLE2=Say I Am (What I Am)
TTITLE3=Lots of Pretty Girls
TTITLE4=It's Only Love
TTITLE5=Ya-Ya
TTITLE6=I Think We're Alone Now
TTITLE7=Gone, Gone
TTITLE8=Mirage
TTITLE9=Run Run Baby Run
TTITLE10=I Like the Way
TTITLE11=(Baby) Baby I Can't Take it No More
TTITLE12=Gettin Together
TTITLE13=Real Girl
TTITLE14=Out Of The Blue
TTITLE15=Love's Closin' In On Me
TTITLE16=Get Out Now
TTITLE17=Wish It Was You
TTITLE18=Mony Mony
TTITLE19=One, Two, Three and I Fell
EXTD=
EXTT0=
EXTT1=
EXTT2=
EXTT3=
EXTT4=
EXTT5=
EXTT6=
EXTT7=
EXTT8=
EXTT9=
EXTT10=
EXTT11=
EXTT12=
EXTT13=
EXTT14=
EXTT15=
EXTT16=
EXTT17=
EXTT18=
EXTT19=
PLAYORDER=
